<svg width="44" height="35" viewBox="0 0 44 35" fill="none" xmlns="http://www.w3.org/2000/svg">
<path d="M1.14994 33.7459C1.51768 34.0027 2.93613 34.7196 4.13393 33.1788L12.2453 21.1095L20.8296 29.5409C21.2814 29.9796 21.9013 30.215 22.5317 30.1401C23.1516 30.0759 23.719 29.7442 24.0867 29.2199L38.3237 8.43036L38.8386 15.3852C38.9646 17.1506 40.5932 17.4395 41.1396 17.3967C42.3164 17.3004 43.2095 16.2626 43.1149 15.0535L42.2113 2.8237C42.1273 1.62534 41.0976 0.715859 39.9103 0.812156L27.9008 1.73233C26.724 1.81793 25.8309 2.8665 25.9255 4.07557C26.0095 5.27394 27.0287 6.17272 28.2265 6.08712L35.056 5.56284L22.0063 24.6084L13.4011 16.1556C12.9493 15.7062 12.3189 15.4815 11.699 15.5564C11.0686 15.6206 10.5012 15.963 10.1439 16.498L0.593068 30.7072C-0.0793804 31.7023 0.172787 33.0611 1.14994 33.7459Z" fill="#27A2DB"/>
</svg>
